{"title":"Special ID 2013 BRRip 720p x264 AAC - PRiSTiNE [P2PDL]","uid":9379759,"size":667587133,"categoryP":"video","categoryS":"hd___movies","magnet":"?xt=urn:btih:5e11f93f79b39d4fc2f77e14438805d3cf0df3a0&amp;dn=Special+ID+2013+BRRip+720p+x264+AAC+-+PRiSTiNE+%5BP2PDL%5D&amp;tr=udp%3A%2F%2Ftracker.openbittorrent.com%3A80&amp;tr=udp%3A%2F%2Fopen.demonii.com%3A1337&amp;tr=udp%3A%2F%2Ftracker.coppersurfer.tk%3A6969&amp;tr=udp%3A%2F%2Fexodus.desync.com%3A6969","seeders":1,"leechers":3,"uploader":"Vitamin_X","files":-1,"time":1387691861,"description":"_______ Visit us at our Semi Public Bittorrent Community ________\n  &lt;a href=&quot;\nhttp://p2pdl.com&quot; rel=&quot;nofollow&quot; target=&quot;_NEW&quot;&gt;\nhttp://p2pdl.com&lt;/a&gt;  _____________________________ &lt;a href=&quot; http://p2pdl.com&quot; rel=&quot;nofollow&quot; target=&quot;_NEW&quot;&gt; http://p2pdl.com&lt;/a&gt;\n\n\nSpecial ID 2013 BRRip 720p x264 AAC - PRiSTiNE\n\nIMDb: &lt;a href=&quot; http://www.imdb.com/title/tt2118775/&quot; rel=&quot;nofollow&quot; target=&quot;_NEW&quot;&gt; http://www.imdb.com/title/tt2118775/&lt;/a&gt;\n\n\n\nGeneral\nFormat                         : MPEG-4\nFile size                      : 628 MiB\nDuration                       : 1h 39mn\nOverall bit rate mode          : Variable\nOverall bit rate               : 881 Kbps\n\n\nVideo\nFormat                         : AVC\nBit rate                       : 800 Kbps\nWidth                          : 1 280 pixels\nHeight                         : 544 pixels\nDisplay aspect ratio           : 2.35:1\nFrame rate mode                : Constant\nFrame rate                     : 24.000 fps\nBit depth                      : 10 bits\nStream size                    : 570 MiB (91%)\nWriting library                : x264 core 140 r2377 1ca7bb9\n\n\nAudio\nFormat                         : AAC\nBit rate                       : 79.0 Kbps\nChannel count                  : 2 channels\nChannel positions              : Front: L R\nSampling rate                  : 48.0 KHz / 24.0 KHz\nStream size                    : 56.4 MiB (9%)\nLanguage                       : Chinese\n\n\nSubtitle                       : No\n\nSource                         : 720p.BluRay.x264-WiKi\n &lt;a href=&quot;\nhttp://someimage.com/UQ7S2Sb&quot; rel=&quot;nofollow&quot; target=&quot;_NEW&quot;&gt;\nhttp://someimage.com/UQ7S2Sb&lt;/a&gt; &lt;a href=&quot;\nhttp://someimage.com/FDRXnsR&quot; rel=&quot;nofollow&quot; target=&quot;_NEW&quot;&gt;\nhttp://someimage.com/FDRXnsR&lt;/a&gt; &lt;a href=&quot;\nhttp://someimage.com/K1sbVgv&quot; rel=&quot;nofollow&quot; target=&quot;_NEW&quot;&gt;\nhttp://someimage.com/K1sbVgv&lt;/a&gt; &lt;a href=&quot;\nhttp://someimage.com/4wpYwGG&quot; rel=&quot;nofollow&quot; target=&quot;_NEW&quot;&gt;\nhttp://someimage.com/4wpYwGG&lt;/a&gt; &lt;a href=&quot;\nhttp://someimage.com/JKouqmc&quot; rel=&quot;nofollow&quot; target=&quot;_NEW&quot;&gt;\nhttp://someimage.com/JKouqmc&lt;/a&gt; &lt;a href=&quot;\nhttp://someimage.com/i4eOxWB&quot; rel=&quot;nofollow&quot; target=&quot;_NEW&quot;&gt;\nhttp://someimage.com/i4eOxWB&lt;/a&gt; &lt;a href=&quot;\nhttp://someimage.com/Leil5Bn&quot; rel=&quot;nofollow&quot; target=&quot;_NEW&quot;&gt;\nhttp://someimage.com/Leil5Bn&lt;/a&gt; &lt;a href=&quot;\nhttp://someimage.com/RHJL4ZA&quot; rel=&quot;nofollow&quot; target=&quot;_NEW&quot;&gt;\nhttp://someimage.com/RHJL4ZA&lt;/a&gt;\n\n\n----------------------------------------------------------------------------------------------------\n\n\nEncoded using revolutionary 10bit encoding, which enables us to provide you more crispier \nand sharper images at small sizes, just make sure you follow our instructions without a fault.\nRecommend to you to use latest version of VLC player. Install K-Lite Codec Pack or shark007 codecs\nin case of any kind of problem in playback (For non-VLC Media Player users). Alternatively, install\nCore AVC codecs, the fastest decoder that there is coupled with Community Center Codec Pack and play\non Windows Media Player Classic. Check sample to be sure.\nEnjoy!\n\nEncoder Notes:Looking For Early Access To Anything You Can Provide DVDScr, R5, DVDR, BluRay, Direct\nAudio, Music Releases and Seedboxes. We require dedicated servers, so as to do more \nand fast releases of movies.\nIf You Got anything to offer please contact us at &quot;&lt;a class=&quot;__cf_email__&quot; href=&quot;/cdn-cgi/l/email-protection&quot; data-cfemail=&quot;15656772557d60667d3b767a78&quot;&gt;[email&amp;#160;protected]&lt;/a&gt;&lt;script cf-hash='f9e31' type=&quot;text/javascript&quot;&gt;\n/* &lt;![CDATA[ */!function(){try{var t=&quot;currentScript&quot;in document?document.currentScript:function(){for(var t=document.getElementsByTagName(&quot;script&quot;),e=t.length;e--;)if(t[e].getAttribute(&quot;cf-hash&quot;))return t[e]}();if(t&amp;&amp;t.previousSibling){var e,r,n,i,c=t.previousSibling,a=c.getAttribute(&quot;data-cfemail&quot;);if(a){for(e=&quot;&quot;,r=parseInt(a.substr(0,2),16),n=2;a.length-n;n+=2)i=parseInt(a.substr(n,2),16)^r,e+=String.fromCharCode(i);e=document.createTextNode(e),c.parentNode.replaceChild(e,c)}}}catch(u){}}();/* ]]&gt; */&lt;/script&gt;&quot;.\n\n\nSupport us, please consider a donation via bitcoin.\n\n16aCJG7J5n8eqCHHLPNUZ3ZirwGU34cqXJ\n\nFor more of our team uploads visit @                 &lt;a href=&quot;\nhttp://thepiratebay.se/user/ValidusVyto&quot; rel=&quot;nofollow&quot; target=&quot;_NEW&quot;&gt;\nhttp://thepiratebay.se/user/ValidusVyto&lt;/a&gt;\t\t","torrent":{"xt":"urn:btih:5e11f93f79b39d4fc2f77e14438805d3cf0df3a0","amp;dn":"Special+ID+2013+BRRip+720p+x264+AAC+-+PRiSTiNE+%5BP2PDL%5D","amp;tr":["udp%3A%2F%2Ftracker.openbittorrent.com%3A80","udp%3A%2F%2Fopen.demonii.com%3A1337","udp%3A%2F%2Ftracker.coppersurfer.tk%3A6969","udp%3A%2F%2Fexodus.desync.com%3A6969"],"infoHash":"5e11f93f79b39d4fc2f77e14438805d3cf0df3a0","infoHashBuffer":{"type":"Buffer","data":[94,17,249,63,121,179,157,79,194,247,126,20,67,136,5,211,207,13,243,160]},"announce":[],"urlList":[]}}